<?xml version="1.0" encoding="utf-8" ?>
<svg baseProfile="full" height="1050" version="1.1" width="2400" xmlns="http://www.w3.org/2000/svg" xmlns:ev="http://www.w3.org/2001/xml-events" xmlns:xlink="http://www.w3.org/1999/xlink"><defs /><rect fill="#FFFFFF" height="1050" width="2400" x="0" y="0" /><text fill="#000000" font-family="sans-serif" font-size="20" font-weight="bold" text-anchor="middle" x="1200" y="24">CO2 Capture Plant</text><rect fill="#F5F5F5" height="960" stroke="#999999" stroke-width="1" width="1580" x="30" y="40" /><text fill="#333333" font-family="sans-serif" font-size="16" font-weight="bold" text-anchor="middle" x="820" y="60">PDC ROOM</text><rect fill="#F5F5F5" height="960" stroke="#999999" stroke-width="1" width="750" x="1620" y="40" /><text fill="#333333" font-family="sans-serif" font-size="16" font-weight="bold" text-anchor="middle" x="1995" y="60">OPERATOR ROOM</text><line stroke="#888888" stroke-dasharray="8,4" stroke-width="1" x1="1610" x2="1610" y1="40" y2="1000" /><rect fill="#404040" height="10" width="980" x="70" y="835" /><rect fill="#2B2B2B" height="450" stroke="#111111" stroke-width="2" width="220" x="70" y="250" /><text fill="#000000" font-family="sans-serif" font-size="12" font-weight="bold" text-anchor="middle" x="180" y="240">SERVER CABINET</text><rect fill="#2B2B2B" height="450" stroke="#111111" stroke-width="2" width="330" x="340" y="250" /><text fill="#000000" font-family="sans-serif" font-size="12" font-weight="bold" text-anchor="middle" x="505" y="240">I/O CABINET #1</text><rect fill="#2B2B2B" height="450" stroke="#111111" stroke-width="2" width="330" x="720" y="250" /><text fill="#000000" font-family="sans-serif" font-size="12" font-weight="bold" text-anchor="middle" x="885" y="240">I/O CABINET #2</text><g id="pullout_screen"><rect fill="none" height="22" stroke="#1A1A1A" stroke-width="2" width="204" x="78.0" y="258.0" /><rect fill="#C8D0D8" height="16" width="198" x="81.0" y="261.0" /><line stroke="#B0B8C0" stroke-width="1" x1="81.0" x2="279.0" y1="264.2" y2="264.2" /><line stroke="#B0B8C0" stroke-width="1" x1="81.0" x2="279.0" y1="267.4" y2="267.4" /><line stroke="#B0B8C0" stroke-width="1" x1="81.0" x2="279.0" y1="270.6" y2="270.6" /><line stroke="#B0B8C0" stroke-width="1" x1="81.0" x2="279.0" y1="273.8" y2="273.8" /><circle cx="84.0" cy="269" fill="#666666" r="3" /><circle cx="276.0" cy="269" fill="#666666" r="3" /><text fill="#FFFFFF" font-family="sans-serif" font-size="8" text-anchor="middle" x="180" y="290.0">19" Pullout Screen</text></g><g id="engineering_workstation"><rect fill="#3A3A3A" height="44" stroke="#222222" stroke-width="1" width="204" x="78.0" y="305.0" /><rect fill="#4A4A4A" height="44" width="3" x="78.0" y="305.0" /><rect fill="#4A4A4A" height="44" width="3" x="279.0" y="305.0" /><rect fill="#222222" height="10" stroke="#555555" stroke-width="1" width="12" x="93.0" y="322" /><rect fill="#222222" height="10" stroke="#555555" stroke-width="1" width="12" x="108.0" y="322" /><circle cx="133.0" cy="327" fill="#111111" r="3" stroke="#444444" stroke-width="1" /><circle cx="143.0" cy="327" fill="#111111" r="3" stroke="#444444" stroke-width="1" /><circle cx="153.0" cy="327" fill="#111111" r="3" stroke="#444444" stroke-width="1" /><circle cx="163.0" cy="327" fill="#111111" r="3" stroke="#444444" stroke-width="1" /><circle cx="173.0" cy="327" fill="#111111" r="3" stroke="#444444" stroke-width="1" /><circle cx="183.0" cy="327" fill="#111111" r="3" stroke="#444444" stroke-width="1" /><circle cx="270.0" cy="319" fill="#00CC44" r="3" /><text fill="#FFFFFF" font-family="sans-serif" font-size="8" text-anchor="middle" x="180" y="359.0">EWS / PROPlus</text></g><g id="pk750_controller"><rect fill="#1A2A4A" height="88" stroke="#0A1A3A" stroke-width="1" width="204" x="78.0" y="374.0" /><line stroke="#4466AA" stroke-width="1" x1="180" x2="180" y1="378.0" y2="458.0" /><circle cx="93.0" cy="384.0" fill="#00CC44" r="3" /><circle cx="93.0" cy="406.6666666666667" fill="#FFBF00" r="3" /><circle cx="93.0" cy="429.3333333333333" fill="#00CC44" r="3" /><circle cx="93.0" cy="452.0" fill="#00CC44" r="3" /><rect fill="#222222" height="5" rx="1" ry="1" stroke="#555555" stroke-width="1" width="8" x="103.0" y="447.0" /><rect fill="#222222" height="5" rx="1" ry="1" stroke="#555555" stroke-width="1" width="8" x="121.0" y="447.0" /><rect fill="#222222" height="5" rx="1" ry="1" stroke="#555555" stroke-width="1" width="8" x="139.0" y="447.0" /><rect fill="#222222" height="5" rx="1" ry="1" stroke="#555555" stroke-width="1" width="8" x="157.0" y="447.0" /><circle cx="195" cy="384.0" fill="#00CC44" r="3" /><circle cx="195" cy="406.6666666666667" fill="#FFBF00" r="3" /><circle cx="195" cy="429.3333333333333" fill="#00CC44" r="3" /><circle cx="195" cy="452.0" fill="#00CC44" r="3" /><rect fill="#222222" height="5" rx="1" ry="1" stroke="#555555" stroke-width="1" width="8" x="205.0" y="447.0" /><rect fill="#222222" height="5" rx="1" ry="1" stroke="#555555" stroke-width="1" width="8" x="223.0" y="447.0" /><rect fill="#222222" height="5" rx="1" ry="1" stroke="#555555" stroke-width="1" width="8" x="241.0" y="447.0" /><rect fill="#222222" height="5" rx="1" ry="1" stroke="#555555" stroke-width="1" width="8" x="259.0" y="447.0" /><text fill="#AABBDD" font-family="sans-serif" font-size="7" style="letter-spacing: 1px" text-anchor="middle" x="180" y="418">REDUNDANT</text><text fill="#FFFFFF" font-family="sans-serif" font-size="8" text-anchor="middle" x="180" y="472.0">PK Controller</text></g><g id="deltav_switch"><rect fill="#4A4A4A" height="22" width="204" x="78.0" y="487.0" /><rect fill="#2244CC" height="22" width="6" x="78.0" y="487.0" /><rect fill="#222222" height="6" stroke="#555555" stroke-width="1" width="8" x="98.0" y="495" /><circle cx="102.0" cy="490" fill="#00CC44" r="2" /><rect fill="#222222" height="6" stroke="#555555" stroke-width="1" width="8" x="112.0" y="495" /><circle cx="116.0" cy="490" fill="#00CC44" r="2" /><rect fill="#222222" height="6" stroke="#555555" stroke-width="1" width="8" x="126.0" y="495" /><circle cx="130.0" cy="490" fill="#00CC44" r="2" /><rect fill="#222222" height="6" stroke="#555555" stroke-width="1" width="8" x="140.0" y="495" /><circle cx="144.0" cy="490" fill="#00CC44" r="2" /><rect fill="#222222" height="6" stroke="#555555" stroke-width="1" width="8" x="154.0" y="495" /><circle cx="158.0" cy="490" fill="#00CC44" r="2" /><rect fill="#222222" height="6" stroke="#555555" stroke-width="1" width="8" x="168.0" y="495" /><circle cx="172.0" cy="490" fill="#00CC44" r="2" /><rect fill="#222222" height="6" stroke="#555555" stroke-width="1" width="8" x="182.0" y="495" /><circle cx="186.0" cy="490" fill="#00CC44" r="2" /><rect fill="#222222" height="6" stroke="#555555" stroke-width="1" width="8" x="196.0" y="495" /><circle cx="200.0" cy="490" fill="#00CC44" r="2" /><text fill="#FFFFFF" font-family="sans-serif" font-size="8" text-anchor="middle" x="180" y="519.0">Red. DCS Switches</text></g><g id="hirschmann_switch"><rect fill="#505050" height="22" width="204" x="78.0" y="534.0" /><rect fill="#CC6622" height="22" width="6" x="78.0" y="534.0" /><rect fill="#222222" height="5" rx="2" ry="2" width="8" x="98.0" y="538" /><rect fill="#222222" height="5" rx="2" ry="2" width="8" x="114.0" y="538" /><rect fill="#222222" height="5" rx="2" ry="2" width="8" x="130.0" y="538" /><rect fill="#222222" height="5" rx="2" ry="2" width="8" x="146.0" y="538" /><rect fill="#222222" height="5" rx="2" ry="2" width="8" x="98.0" y="547" /><rect fill="#222222" height="5" rx="2" ry="2" width="8" x="114.0" y="547" /><rect fill="#222222" height="5" rx="2" ry="2" width="8" x="130.0" y="547" /><rect fill="#222222" height="5" rx="2" ry="2" width="8" x="146.0" y="547" /><text fill="#FFFFFF" font-family="sans-serif" font-size="8" text-anchor="middle" x="180" y="566.0">PIN Switch</text></g><g id="ups"><rect fill="#282828" height="44" stroke="#111111" stroke-width="1" width="204" x="78.0" y="581.0" /><rect fill="#2244CC" height="4" width="204" x="78.0" y="581.0" /><rect fill="#1A2A1A" height="16" stroke="#00CC44" stroke-width="2" width="50" x="98.0" y="595" /><rect fill="#00CC44" height="8" width="8" x="158.0" y="599" /><rect fill="#00CC44" height="8" width="8" x="168.0" y="599" /><rect fill="#00CC44" height="8" width="8" x="178.0" y="599" /><rect fill="#00CC44" height="8" width="8" x="188.0" y="599" /><rect fill="#444444" height="8" width="8" x="198.0" y="599" /><circle cx="267.0" cy="603" fill="#111111" r="4" stroke="#666666" stroke-width="1" /><circle cx="252.0" cy="603" fill="#111111" r="4" stroke="#666666" stroke-width="1" /><circle cx="237.0" cy="603" fill="#111111" r="4" stroke="#666666" stroke-width="1" /><text fill="#FFFFFF" font-family="sans-serif" font-size="8" text-anchor="middle" x="180" y="635.0">UPS</text></g><text fill="#DDDDDD" font-family="sans-serif" font-size="10" text-anchor="middle" x="395" y="470">Tower A</text><g id="cioc"><rect fill="#3D3D3D" height="55" stroke="#555555" stroke-width="1" width="100" x="345.0" y="259.5" /><circle cx="381" cy="287" fill="#885533" r="6" stroke="#AA7744" stroke-width="1" /><circle cx="409" cy="287" fill="#885533" r="6" stroke="#AA7744" stroke-width="1" /><circle cx="389" cy="305" fill="#00CC44" r="3" /><circle cx="401" cy="305" fill="#00CC44" r="3" /><text fill="#AAAAAA" font-family="sans-serif" font-size="8" text-anchor="middle" x="395" y="274.5">CIOC</text></g><g id="charm_baseplate"><rect fill="#2A2A2A" height="18" width="100" x="345.0" y="318.0" /><rect fill="#4488CC" height="18" width="5" x="345.0" y="318.0" /><line stroke="#444444" stroke-width="0.5" x1="355.0" x2="440.0" y1="320.0" y2="320.0" /><line stroke="#444444" stroke-width="0.5" x1="355.0" x2="440.0" y1="322.0" y2="322.0" /><line stroke="#444444" stroke-width="0.5" x1="355.0" x2="440.0" y1="324.0" y2="324.0" /><line stroke="#444444" stroke-width="0.5" x1="355.0" x2="440.0" y1="326.0" y2="326.0" /><line stroke="#444444" stroke-width="0.5" x1="355.0" x2="440.0" y1="328.0" y2="328.0" /><line stroke="#444444" stroke-width="0.5" x1="355.0" x2="440.0" y1="330.0" y2="330.0" /><line stroke="#444444" stroke-width="0.5" x1="355.0" x2="440.0" y1="332.0" y2="332.0" /><line stroke="#444444" stroke-width="0.5" x1="355.0" x2="440.0" y1="334.0" y2="334.0" /><line stroke="#3A3A3A" stroke-width="1" x1="444.0" x2="444.0" y1="318.0" y2="336.0" /></g><g id="charm_baseplate"><rect fill="#303030" height="18" width="100" x="345.0" y="336.0" /><rect fill="#4488CC" height="18" width="5" x="345.0" y="336.0" /><line stroke="#444444" stroke-width="0.5" x1="355.0" x2="440.0" y1="338.0" y2="338.0" /><line stroke="#444444" stroke-width="0.5" x1="355.0" x2="440.0" y1="340.0" y2="340.0" /><line stroke="#444444" stroke-width="0.5" x1="355.0" x2="440.0" y1="342.0" y2="342.0" /><line stroke="#444444" stroke-width="0.5" x1="355.0" x2="440.0" y1="344.0" y2="344.0" /><line stroke="#444444" stroke-width="0.5" x1="355.0" x2="440.0" y1="346.0" y2="346.0" /><line stroke="#444444" stroke-width="0.5" x1="355.0" x2="440.0" y1="348.0" y2="348.0" /><line stroke="#444444" stroke-width="0.5" x1="355.0" x2="440.0" y1="350.0" y2="350.0" /><line stroke="#444444" stroke-width="0.5" x1="355.0" x2="440.0" y1="352.0" y2="352.0" /><line stroke="#3A3A3A" stroke-width="1" x1="444.0" x2="444.0" y1="336.0" y2="354.0" /></g><g id="charm_baseplate"><rect fill="#2A2A2A" height="18" width="100" x="345.0" y="354.0" /><rect fill="#4488CC" height="18" width="5" x="345.0" y="354.0" /><line stroke="#444444" stroke-width="0.5" x1="355.0" x2="440.0" y1="356.0" y2="356.0" /><line stroke="#444444" stroke-width="0.5" x1="355.0" x2="440.0" y1="358.0" y2="358.0" /><line stroke="#444444" stroke-width="0.5" x1="355.0" x2="440.0" y1="360.0" y2="360.0" /><line stroke="#444444" stroke-width="0.5" x1="355.0" x2="440.0" y1="362.0" y2="362.0" /><line stroke="#444444" stroke-width="0.5" x1="355.0" x2="440.0" y1="364.0" y2="364.0" /><line stroke="#444444" stroke-width="0.5" x1="355.0" x2="440.0" y1="366.0" y2="366.0" /><line stroke="#444444" stroke-width="0.5" x1="355.0" x2="440.0" y1="368.0" y2="368.0" /><line stroke="#444444" stroke-width="0.5" x1="355.0" x2="440.0" y1="370.0" y2="370.0" /><line stroke="#3A3A3A" stroke-width="1" x1="444.0" x2="444.0" y1="354.0" y2="372.0" /></g><g id="charm_baseplate"><rect fill="#303030" height="18" width="100" x="345.0" y="372.0" /><rect fill="#4488CC" height="18" width="5" x="345.0" y="372.0" /><line stroke="#444444" stroke-width="0.5" x1="355.0" x2="440.0" y1="374.0" y2="374.0" /><line stroke="#444444" stroke-width="0.5" x1="355.0" x2="440.0" y1="376.0" y2="376.0" /><line stroke="#444444" stroke-width="0.5" x1="355.0" x2="440.0" y1="378.0" y2="378.0" /><line stroke="#444444" stroke-width="0.5" x1="355.0" x2="440.0" y1="380.0" y2="380.0" /><line stroke="#444444" stroke-width="0.5" x1="355.0" x2="440.0" y1="382.0" y2="382.0" /><line stroke="#444444" stroke-width="0.5" x1="355.0" x2="440.0" y1="384.0" y2="384.0" /><line stroke="#444444" stroke-width="0.5" x1="355.0" x2="440.0" y1="386.0" y2="386.0" /><line stroke="#444444" stroke-width="0.5" x1="355.0" x2="440.0" y1="388.0" y2="388.0" /><line stroke="#3A3A3A" stroke-width="1" x1="444.0" x2="444.0" y1="372.0" y2="390.0" /></g><g id="charm_baseplate"><rect fill="#2A2A2A" height="18" width="100" x="345.0" y="390.0" /><rect fill="#4488CC" height="18" width="5" x="345.0" y="390.0" /><line stroke="#444444" stroke-width="0.5" x1="355.0" x2="440.0" y1="392.0" y2="392.0" /><line stroke="#444444" stroke-width="0.5" x1="355.0" x2="440.0" y1="394.0" y2="394.0" /><line stroke="#444444" stroke-width="0.5" x1="355.0" x2="440.0" y1="396.0" y2="396.0" /><line stroke="#444444" stroke-width="0.5" x1="355.0" x2="440.0" y1="398.0" y2="398.0" /><line stroke="#444444" stroke-width="0.5" x1="355.0" x2="440.0" y1="400.0" y2="400.0" /><line stroke="#444444" stroke-width="0.5" x1="355.0" x2="440.0" y1="402.0" y2="402.0" /><line stroke="#444444" stroke-width="0.5" x1="355.0" x2="440.0" y1="404.0" y2="404.0" /><line stroke="#444444" stroke-width="0.5" x1="355.0" x2="440.0" y1="406.0" y2="406.0" /><line stroke="#3A3A3A" stroke-width="1" x1="444.0" x2="444.0" y1="390.0" y2="408.0" /></g><g id="charm_baseplate"><rect fill="#303030" height="18" width="100" x="345.0" y="408.0" /><rect fill="#4488CC" height="18" width="5" x="345.0" y="408.0" /><line stroke="#444444" stroke-width="0.5" x1="355.0" x2="440.0" y1="410.0" y2="410.0" /><line stroke="#444444" stroke-width="0.5" x1="355.0" x2="440.0" y1="412.0" y2="412.0" /><line stroke="#444444" stroke-width="0.5" x1="355.0" x2="440.0" y1="414.0" y2="414.0" /><line stroke="#444444" stroke-width="0.5" x1="355.0" x2="440.0" y1="416.0" y2="416.0" /><line stroke="#444444" stroke-width="0.5" x1="355.0" x2="440.0" y1="418.0" y2="418.0" /><line stroke="#444444" stroke-width="0.5" x1="355.0" x2="440.0" y1="420.0" y2="420.0" /><line stroke="#444444" stroke-width="0.5" x1="355.0" x2="440.0" y1="422.0" y2="422.0" /><line stroke="#444444" stroke-width="0.5" x1="355.0" x2="440.0" y1="424.0" y2="424.0" /><line stroke="#3A3A3A" stroke-width="1" x1="444.0" x2="444.0" y1="408.0" y2="426.0" /></g><g id="charm_baseplate"><rect fill="#2A2A2A" height="18" width="100" x="345.0" y="426.0" /><rect fill="#4488CC" height="18" width="5" x="345.0" y="426.0" /><line stroke="#444444" stroke-width="0.5" x1="355.0" x2="440.0" y1="428.0" y2="428.0" /><line stroke="#444444" stroke-width="0.5" x1="355.0" x2="440.0" y1="430.0" y2="430.0" /><line stroke="#444444" stroke-width="0.5" x1="355.0" x2="440.0" y1="432.0" y2="432.0" /><line stroke="#444444" stroke-width="0.5" x1="355.0" x2="440.0" y1="434.0" y2="434.0" /><line stroke="#444444" stroke-width="0.5" x1="355.0" x2="440.0" y1="436.0" y2="436.0" /><line stroke="#444444" stroke-width="0.5" x1="355.0" x2="440.0" y1="438.0" y2="438.0" /><line stroke="#444444" stroke-width="0.5" x1="355.0" x2="440.0" y1="440.0" y2="440.0" /><line stroke="#444444" stroke-width="0.5" x1="355.0" x2="440.0" y1="442.0" y2="442.0" /><line stroke="#3A3A3A" stroke-width="1" x1="444.0" x2="444.0" y1="426.0" y2="444.0" /></g><g id="charm_baseplate"><rect fill="#303030" height="18" width="100" x="345.0" y="444.0" /><rect fill="#4488CC" height="18" width="5" x="345.0" y="444.0" /><line stroke="#444444" stroke-width="0.5" x1="355.0" x2="440.0" y1="446.0" y2="446.0" /><line stroke="#444444" stroke-width="0.5" x1="355.0" x2="440.0" y1="448.0" y2="448.0" /><line stroke="#444444" stroke-width="0.5" x1="355.0" x2="440.0" y1="450.0" y2="450.0" /><line stroke="#444444" stroke-width="0.5" x1="355.0" x2="440.0" y1="452.0" y2="452.0" /><line stroke="#444444" stroke-width="0.5" x1="355.0" x2="440.0" y1="454.0" y2="454.0" /><line stroke="#444444" stroke-width="0.5" x1="355.0" x2="440.0" y1="456.0" y2="456.0" /><line stroke="#444444" stroke-width="0.5" x1="355.0" x2="440.0" y1="458.0" y2="458.0" /><line stroke="#444444" stroke-width="0.5" x1="355.0" x2="440.0" y1="460.0" y2="460.0" /><line stroke="#3A3A3A" stroke-width="1" x1="444.0" x2="444.0" y1="444.0" y2="462.0" /></g><text fill="#DDDDDD" font-family="sans-serif" font-size="10" text-anchor="middle" x="500" y="470">Tower B</text><g id="cioc"><rect fill="#3D3D3D" height="55" stroke="#555555" stroke-width="1" width="100" x="450.0" y="259.5" /><circle cx="486" cy="287" fill="#885533" r="6" stroke="#AA7744" stroke-width="1" /><circle cx="514" cy="287" fill="#885533" r="6" stroke="#AA7744" stroke-width="1" /><circle cx="494" cy="305" fill="#00CC44" r="3" /><circle cx="506" cy="305" fill="#00CC44" r="3" /><text fill="#AAAAAA" font-family="sans-serif" font-size="8" text-anchor="middle" x="500" y="274.5">CIOC</text></g><g id="charm_baseplate"><rect fill="#2A2A2A" height="18" width="100" x="450.0" y="318.0" /><rect fill="#4488CC" height="18" width="5" x="450.0" y="318.0" /><line stroke="#444444" stroke-width="0.5" x1="460.0" x2="545.0" y1="320.0" y2="320.0" /><line stroke="#444444" stroke-width="0.5" x1="460.0" x2="545.0" y1="322.0" y2="322.0" /><line stroke="#444444" stroke-width="0.5" x1="460.0" x2="545.0" y1="324.0" y2="324.0" /><line stroke="#444444" stroke-width="0.5" x1="460.0" x2="545.0" y1="326.0" y2="326.0" /><line stroke="#444444" stroke-width="0.5" x1="460.0" x2="545.0" y1="328.0" y2="328.0" /><line stroke="#444444" stroke-width="0.5" x1="460.0" x2="545.0" y1="330.0" y2="330.0" /><line stroke="#444444" stroke-width="0.5" x1="460.0" x2="545.0" y1="332.0" y2="332.0" /><line stroke="#444444" stroke-width="0.5" x1="460.0" x2="545.0" y1="334.0" y2="334.0" /><line stroke="#3A3A3A" stroke-width="1" x1="549.0" x2="549.0" y1="318.0" y2="336.0" /></g><g id="charm_baseplate"><rect fill="#303030" height="18" width="100" x="450.0" y="336.0" /><rect fill="#4488CC" height="18" width="5" x="450.0" y="336.0" /><line stroke="#444444" stroke-width="0.5" x1="460.0" x2="545.0" y1="338.0" y2="338.0" /><line stroke="#444444" stroke-width="0.5" x1="460.0" x2="545.0" y1="340.0" y2="340.0" /><line stroke="#444444" stroke-width="0.5" x1="460.0" x2="545.0" y1="342.0" y2="342.0" /><line stroke="#444444" stroke-width="0.5" x1="460.0" x2="545.0" y1="344.0" y2="344.0" /><line stroke="#444444" stroke-width="0.5" x1="460.0" x2="545.0" y1="346.0" y2="346.0" /><line stroke="#444444" stroke-width="0.5" x1="460.0" x2="545.0" y1="348.0" y2="348.0" /><line stroke="#444444" stroke-width="0.5" x1="460.0" x2="545.0" y1="350.0" y2="350.0" /><line stroke="#444444" stroke-width="0.5" x1="460.0" x2="545.0" y1="352.0" y2="352.0" /><line stroke="#3A3A3A" stroke-width="1" x1="549.0" x2="549.0" y1="336.0" y2="354.0" /></g><g id="charm_baseplate"><rect fill="#2A2A2A" height="18" width="100" x="450.0" y="354.0" /><rect fill="#4488CC" height="18" width="5" x="450.0" y="354.0" /><line stroke="#444444" stroke-width="0.5" x1="460.0" x2="545.0" y1="356.0" y2="356.0" /><line stroke="#444444" stroke-width="0.5" x1="460.0" x2="545.0" y1="358.0" y2="358.0" /><line stroke="#444444" stroke-width="0.5" x1="460.0" x2="545.0" y1="360.0" y2="360.0" /><line stroke="#444444" stroke-width="0.5" x1="460.0" x2="545.0" y1="362.0" y2="362.0" /><line stroke="#444444" stroke-width="0.5" x1="460.0" x2="545.0" y1="364.0" y2="364.0" /><line stroke="#444444" stroke-width="0.5" x1="460.0" x2="545.0" y1="366.0" y2="366.0" /><line stroke="#444444" stroke-width="0.5" x1="460.0" x2="545.0" y1="368.0" y2="368.0" /><line stroke="#444444" stroke-width="0.5" x1="460.0" x2="545.0" y1="370.0" y2="370.0" /><line stroke="#3A3A3A" stroke-width="1" x1="549.0" x2="549.0" y1="354.0" y2="372.0" /></g><g id="charm_baseplate"><rect fill="#303030" height="18" width="100" x="450.0" y="372.0" /><rect fill="#4488CC" height="18" width="5" x="450.0" y="372.0" /><line stroke="#444444" stroke-width="0.5" x1="460.0" x2="545.0" y1="374.0" y2="374.0" /><line stroke="#444444" stroke-width="0.5" x1="460.0" x2="545.0" y1="376.0" y2="376.0" /><line stroke="#444444" stroke-width="0.5" x1="460.0" x2="545.0" y1="378.0" y2="378.0" /><line stroke="#444444" stroke-width="0.5" x1="460.0" x2="545.0" y1="380.0" y2="380.0" /><line stroke="#444444" stroke-width="0.5" x1="460.0" x2="545.0" y1="382.0" y2="382.0" /><line stroke="#444444" stroke-width="0.5" x1="460.0" x2="545.0" y1="384.0" y2="384.0" /><line stroke="#444444" stroke-width="0.5" x1="460.0" x2="545.0" y1="386.0" y2="386.0" /><line stroke="#444444" stroke-width="0.5" x1="460.0" x2="545.0" y1="388.0" y2="388.0" /><line stroke="#3A3A3A" stroke-width="1" x1="549.0" x2="549.0" y1="372.0" y2="390.0" /></g><g id="charm_baseplate"><rect fill="#2A2A2A" height="18" width="100" x="450.0" y="390.0" /><rect fill="#4488CC" height="18" width="5" x="450.0" y="390.0" /><line stroke="#444444" stroke-width="0.5" x1="460.0" x2="545.0" y1="392.0" y2="392.0" /><line stroke="#444444" stroke-width="0.5" x1="460.0" x2="545.0" y1="394.0" y2="394.0" /><line stroke="#444444" stroke-width="0.5" x1="460.0" x2="545.0" y1="396.0" y2="396.0" /><line stroke="#444444" stroke-width="0.5" x1="460.0" x2="545.0" y1="398.0" y2="398.0" /><line stroke="#444444" stroke-width="0.5" x1="460.0" x2="545.0" y1="400.0" y2="400.0" /><line stroke="#444444" stroke-width="0.5" x1="460.0" x2="545.0" y1="402.0" y2="402.0" /><line stroke="#444444" stroke-width="0.5" x1="460.0" x2="545.0" y1="404.0" y2="404.0" /><line stroke="#444444" stroke-width="0.5" x1="460.0" x2="545.0" y1="406.0" y2="406.0" /><line stroke="#3A3A3A" stroke-width="1" x1="549.0" x2="549.0" y1="390.0" y2="408.0" /></g><g id="charm_baseplate"><rect fill="#303030" height="18" width="100" x="450.0" y="408.0" /><rect fill="#4488CC" height="18" width="5" x="450.0" y="408.0" /><line stroke="#444444" stroke-width="0.5" x1="460.0" x2="545.0" y1="410.0" y2="410.0" /><line stroke="#444444" stroke-width="0.5" x1="460.0" x2="545.0" y1="412.0" y2="412.0" /><line stroke="#444444" stroke-width="0.5" x1="460.0" x2="545.0" y1="414.0" y2="414.0" /><line stroke="#444444" stroke-width="0.5" x1="460.0" x2="545.0" y1="416.0" y2="416.0" /><line stroke="#444444" stroke-width="0.5" x1="460.0" x2="545.0" y1="418.0" y2="418.0" /><line stroke="#444444" stroke-width="0.5" x1="460.0" x2="545.0" y1="420.0" y2="420.0" /><line stroke="#444444" stroke-width="0.5" x1="460.0" x2="545.0" y1="422.0" y2="422.0" /><line stroke="#444444" stroke-width="0.5" x1="460.0" x2="545.0" y1="424.0" y2="424.0" /><line stroke="#3A3A3A" stroke-width="1" x1="549.0" x2="549.0" y1="408.0" y2="426.0" /></g><g id="charm_baseplate"><rect fill="#2A2A2A" height="18" width="100" x="450.0" y="426.0" /><rect fill="#4488CC" height="18" width="5" x="450.0" y="426.0" /><line stroke="#444444" stroke-width="0.5" x1="460.0" x2="545.0" y1="428.0" y2="428.0" /><line stroke="#444444" stroke-width="0.5" x1="460.0" x2="545.0" y1="430.0" y2="430.0" /><line stroke="#444444" stroke-width="0.5" x1="460.0" x2="545.0" y1="432.0" y2="432.0" /><line stroke="#444444" stroke-width="0.5" x1="460.0" x2="545.0" y1="434.0" y2="434.0" /><line stroke="#444444" stroke-width="0.5" x1="460.0" x2="545.0" y1="436.0" y2="436.0" /><line stroke="#444444" stroke-width="0.5" x1="460.0" x2="545.0" y1="438.0" y2="438.0" /><line stroke="#444444" stroke-width="0.5" x1="460.0" x2="545.0" y1="440.0" y2="440.0" /><line stroke="#444444" stroke-width="0.5" x1="460.0" x2="545.0" y1="442.0" y2="442.0" /><line stroke="#3A3A3A" stroke-width="1" x1="549.0" x2="549.0" y1="426.0" y2="444.0" /></g><g id="charm_baseplate"><rect fill="#303030" height="18" width="100" x="450.0" y="444.0" /><rect fill="#4488CC" height="18" width="5" x="450.0" y="444.0" /><line stroke="#444444" stroke-width="0.5" x1="460.0" x2="545.0" y1="446.0" y2="446.0" /><line stroke="#444444" stroke-width="0.5" x1="460.0" x2="545.0" y1="448.0" y2="448.0" /><line stroke="#444444" stroke-width="0.5" x1="460.0" x2="545.0" y1="450.0" y2="450.0" /><line stroke="#444444" stroke-width="0.5" x1="460.0" x2="545.0" y1="452.0" y2="452.0" /><line stroke="#444444" stroke-width="0.5" x1="460.0" x2="545.0" y1="454.0" y2="454.0" /><line stroke="#444444" stroke-width="0.5" x1="460.0" x2="545.0" y1="456.0" y2="456.0" /><line stroke="#444444" stroke-width="0.5" x1="460.0" x2="545.0" y1="458.0" y2="458.0" /><line stroke="#444444" stroke-width="0.5" x1="460.0" x2="545.0" y1="460.0" y2="460.0" /><line stroke="#3A3A3A" stroke-width="1" x1="549.0" x2="549.0" y1="444.0" y2="462.0" /></g><text fill="#DDDDDD" font-family="sans-serif" font-size="10" text-anchor="middle" x="605" y="470">Tower C</text><g id="cioc"><rect fill="#3D3D3D" height="55" stroke="#555555" stroke-width="1" width="100" x="555.0" y="259.5" /><circle cx="591" cy="287" fill="#885533" r="6" stroke="#AA7744" stroke-width="1" /><circle cx="619" cy="287" fill="#885533" r="6" stroke="#AA7744" stroke-width="1" /><circle cx="599" cy="305" fill="#00CC44" r="3" /><circle cx="611" cy="305" fill="#00CC44" r="3" /><text fill="#AAAAAA" font-family="sans-serif" font-size="8" text-anchor="middle" x="605" y="274.5">CIOC</text></g><g id="charm_baseplate"><rect fill="#2A2A2A" height="18" width="100" x="555.0" y="318.0" /><rect fill="#4488CC" height="18" width="5" x="555.0" y="318.0" /><line stroke="#444444" stroke-width="0.5" x1="565.0" x2="650.0" y1="320.0" y2="320.0" /><line stroke="#444444" stroke-width="0.5" x1="565.0" x2="650.0" y1="322.0" y2="322.0" /><line stroke="#444444" stroke-width="0.5" x1="565.0" x2="650.0" y1="324.0" y2="324.0" /><line stroke="#444444" stroke-width="0.5" x1="565.0" x2="650.0" y1="326.0" y2="326.0" /><line stroke="#444444" stroke-width="0.5" x1="565.0" x2="650.0" y1="328.0" y2="328.0" /><line stroke="#444444" stroke-width="0.5" x1="565.0" x2="650.0" y1="330.0" y2="330.0" /><line stroke="#444444" stroke-width="0.5" x1="565.0" x2="650.0" y1="332.0" y2="332.0" /><line stroke="#444444" stroke-width="0.5" x1="565.0" x2="650.0" y1="334.0" y2="334.0" /><line stroke="#3A3A3A" stroke-width="1" x1="654.0" x2="654.0" y1="318.0" y2="336.0" /></g><g id="charm_baseplate"><rect fill="#303030" height="18" width="100" x="555.0" y="336.0" /><rect fill="#4488CC" height="18" width="5" x="555.0" y="336.0" /><line stroke="#444444" stroke-width="0.5" x1="565.0" x2="650.0" y1="338.0" y2="338.0" /><line stroke="#444444" stroke-width="0.5" x1="565.0" x2="650.0" y1="340.0" y2="340.0" /><line stroke="#444444" stroke-width="0.5" x1="565.0" x2="650.0" y1="342.0" y2="342.0" /><line stroke="#444444" stroke-width="0.5" x1="565.0" x2="650.0" y1="344.0" y2="344.0" /><line stroke="#444444" stroke-width="0.5" x1="565.0" x2="650.0" y1="346.0" y2="346.0" /><line stroke="#444444" stroke-width="0.5" x1="565.0" x2="650.0" y1="348.0" y2="348.0" /><line stroke="#444444" stroke-width="0.5" x1="565.0" x2="650.0" y1="350.0" y2="350.0" /><line stroke="#444444" stroke-width="0.5" x1="565.0" x2="650.0" y1="352.0" y2="352.0" /><line stroke="#3A3A3A" stroke-width="1" x1="654.0" x2="654.0" y1="336.0" y2="354.0" /></g><g id="charm_baseplate"><rect fill="#2A2A2A" height="18" width="100" x="555.0" y="354.0" /><rect fill="#4488CC" height="18" width="5" x="555.0" y="354.0" /><line stroke="#444444" stroke-width="0.5" x1="565.0" x2="650.0" y1="356.0" y2="356.0" /><line stroke="#444444" stroke-width="0.5" x1="565.0" x2="650.0" y1="358.0" y2="358.0" /><line stroke="#444444" stroke-width="0.5" x1="565.0" x2="650.0" y1="360.0" y2="360.0" /><line stroke="#444444" stroke-width="0.5" x1="565.0" x2="650.0" y1="362.0" y2="362.0" /><line stroke="#444444" stroke-width="0.5" x1="565.0" x2="650.0" y1="364.0" y2="364.0" /><line stroke="#444444" stroke-width="0.5" x1="565.0" x2="650.0" y1="366.0" y2="366.0" /><line stroke="#444444" stroke-width="0.5" x1="565.0" x2="650.0" y1="368.0" y2="368.0" /><line stroke="#444444" stroke-width="0.5" x1="565.0" x2="650.0" y1="370.0" y2="370.0" /><line stroke="#3A3A3A" stroke-width="1" x1="654.0" x2="654.0" y1="354.0" y2="372.0" /></g><g id="charm_baseplate"><rect fill="#303030" height="18" width="100" x="555.0" y="372.0" /><rect fill="#4488CC" height="18" width="5" x="555.0" y="372.0" /><line stroke="#444444" stroke-width="0.5" x1="565.0" x2="650.0" y1="374.0" y2="374.0" /><line stroke="#444444" stroke-width="0.5" x1="565.0" x2="650.0" y1="376.0" y2="376.0" /><line stroke="#444444" stroke-width="0.5" x1="565.0" x2="650.0" y1="378.0" y2="378.0" /><line stroke="#444444" stroke-width="0.5" x1="565.0" x2="650.0" y1="380.0" y2="380.0" /><line stroke="#444444" stroke-width="0.5" x1="565.0" x2="650.0" y1="382.0" y2="382.0" /><line stroke="#444444" stroke-width="0.5" x1="565.0" x2="650.0" y1="384.0" y2="384.0" /><line stroke="#444444" stroke-width="0.5" x1="565.0" x2="650.0" y1="386.0" y2="386.0" /><line stroke="#444444" stroke-width="0.5" x1="565.0" x2="650.0" y1="388.0" y2="388.0" /><line stroke="#3A3A3A" stroke-width="1" x1="654.0" x2="654.0" y1="372.0" y2="390.0" /></g><g id="charm_baseplate"><rect fill="#2A2A2A" height="18" width="100" x="555.0" y="390.0" /><rect fill="#4488CC" height="18" width="5" x="555.0" y="390.0" /><line stroke="#444444" stroke-width="0.5" x1="565.0" x2="650.0" y1="392.0" y2="392.0" /><line stroke="#444444" stroke-width="0.5" x1="565.0" x2="650.0" y1="394.0" y2="394.0" /><line stroke="#444444" stroke-width="0.5" x1="565.0" x2="650.0" y1="396.0" y2="396.0" /><line stroke="#444444" stroke-width="0.5" x1="565.0" x2="650.0" y1="398.0" y2="398.0" /><line stroke="#444444" stroke-width="0.5" x1="565.0" x2="650.0" y1="400.0" y2="400.0" /><line stroke="#444444" stroke-width="0.5" x1="565.0" x2="650.0" y1="402.0" y2="402.0" /><line stroke="#444444" stroke-width="0.5" x1="565.0" x2="650.0" y1="404.0" y2="404.0" /><line stroke="#444444" stroke-width="0.5" x1="565.0" x2="650.0" y1="406.0" y2="406.0" /><line stroke="#3A3A3A" stroke-width="1" x1="654.0" x2="654.0" y1="390.0" y2="408.0" /></g><g id="charm_baseplate"><rect fill="#303030" height="18" width="100" x="555.0" y="408.0" /><rect fill="#4488CC" height="18" width="5" x="555.0" y="408.0" /><line stroke="#444444" stroke-width="0.5" x1="565.0" x2="650.0" y1="410.0" y2="410.0" /><line stroke="#444444" stroke-width="0.5" x1="565.0" x2="650.0" y1="412.0" y2="412.0" /><line stroke="#444444" stroke-width="0.5" x1="565.0" x2="650.0" y1="414.0" y2="414.0" /><line stroke="#444444" stroke-width="0.5" x1="565.0" x2="650.0" y1="416.0" y2="416.0" /><line stroke="#444444" stroke-width="0.5" x1="565.0" x2="650.0" y1="418.0" y2="418.0" /><line stroke="#444444" stroke-width="0.5" x1="565.0" x2="650.0" y1="420.0" y2="420.0" /><line stroke="#444444" stroke-width="0.5" x1="565.0" x2="650.0" y1="422.0" y2="422.0" /><line stroke="#444444" stroke-width="0.5" x1="565.0" x2="650.0" y1="424.0" y2="424.0" /><line stroke="#3A3A3A" stroke-width="1" x1="654.0" x2="654.0" y1="408.0" y2="426.0" /></g><g id="charm_baseplate"><rect fill="#2A2A2A" height="18" width="100" x="555.0" y="426.0" /><rect fill="#4488CC" height="18" width="5" x="555.0" y="426.0" /><line stroke="#444444" stroke-width="0.5" x1="565.0" x2="650.0" y1="428.0" y2="428.0" /><line stroke="#444444" stroke-width="0.5" x1="565.0" x2="650.0" y1="430.0" y2="430.0" /><line stroke="#444444" stroke-width="0.5" x1="565.0" x2="650.0" y1="432.0" y2="432.0" /><line stroke="#444444" stroke-width="0.5" x1="565.0" x2="650.0" y1="434.0" y2="434.0" /><line stroke="#444444" stroke-width="0.5" x1="565.0" x2="650.0" y1="436.0" y2="436.0" /><line stroke="#444444" stroke-width="0.5" x1="565.0" x2="650.0" y1="438.0" y2="438.0" /><line stroke="#444444" stroke-width="0.5" x1="565.0" x2="650.0" y1="440.0" y2="440.0" /><line stroke="#444444" stroke-width="0.5" x1="565.0" x2="650.0" y1="442.0" y2="442.0" /><line stroke="#3A3A3A" stroke-width="1" x1="654.0" x2="654.0" y1="426.0" y2="444.0" /></g><g id="charm_baseplate"><rect fill="#303030" height="18" width="100" x="555.0" y="444.0" /><rect fill="#4488CC" height="18" width="5" x="555.0" y="444.0" /><line stroke="#444444" stroke-width="0.5" x1="565.0" x2="650.0" y1="446.0" y2="446.0" /><line stroke="#444444" stroke-width="0.5" x1="565.0" x2="650.0" y1="448.0" y2="448.0" /><line stroke="#444444" stroke-width="0.5" x1="565.0" x2="650.0" y1="450.0" y2="450.0" /><line stroke="#444444" stroke-width="0.5" x1="565.0" x2="650.0" y1="452.0" y2="452.0" /><line stroke="#444444" stroke-width="0.5" x1="565.0" x2="650.0" y1="454.0" y2="454.0" /><line stroke="#444444" stroke-width="0.5" x1="565.0" x2="650.0" y1="456.0" y2="456.0" /><line stroke="#444444" stroke-width="0.5" x1="565.0" x2="650.0" y1="458.0" y2="458.0" /><line stroke="#444444" stroke-width="0.5" x1="565.0" x2="650.0" y1="460.0" y2="460.0" /><line stroke="#3A3A3A" stroke-width="1" x1="654.0" x2="654.0" y1="444.0" y2="462.0" /></g><text fill="#DDDDDD" font-family="sans-serif" font-size="10" text-anchor="middle" x="775" y="470">Tower A</text><g id="cioc"><rect fill="#3D3D3D" height="55" stroke="#555555" stroke-width="1" width="100" x="725.0" y="259.5" /><circle cx="761" cy="287" fill="#885533" r="6" stroke="#AA7744" stroke-width="1" /><circle cx="789" cy="287" fill="#885533" r="6" stroke="#AA7744" stroke-width="1" /><circle cx="769" cy="305" fill="#00CC44" r="3" /><circle cx="781" cy="305" fill="#00CC44" r="3" /><text fill="#AAAAAA" font-family="sans-serif" font-size="8" text-anchor="middle" x="775" y="274.5">CIOC</text></g><g id="charm_baseplate"><rect fill="#2A2A2A" height="18" width="100" x="725.0" y="318.0" /><rect fill="#4488CC" height="18" width="5" x="725.0" y="318.0" /><line stroke="#444444" stroke-width="0.5" x1="735.0" x2="820.0" y1="320.0" y2="320.0" /><line stroke="#444444" stroke-width="0.5" x1="735.0" x2="820.0" y1="322.0" y2="322.0" /><line stroke="#444444" stroke-width="0.5" x1="735.0" x2="820.0" y1="324.0" y2="324.0" /><line stroke="#444444" stroke-width="0.5" x1="735.0" x2="820.0" y1="326.0" y2="326.0" /><line stroke="#444444" stroke-width="0.5" x1="735.0" x2="820.0" y1="328.0" y2="328.0" /><line stroke="#444444" stroke-width="0.5" x1="735.0" x2="820.0" y1="330.0" y2="330.0" /><line stroke="#444444" stroke-width="0.5" x1="735.0" x2="820.0" y1="332.0" y2="332.0" /><line stroke="#444444" stroke-width="0.5" x1="735.0" x2="820.0" y1="334.0" y2="334.0" /><line stroke="#3A3A3A" stroke-width="1" x1="824.0" x2="824.0" y1="318.0" y2="336.0" /></g><g id="charm_baseplate"><rect fill="#303030" height="18" width="100" x="725.0" y="336.0" /><rect fill="#4488CC" height="18" width="5" x="725.0" y="336.0" /><line stroke="#444444" stroke-width="0.5" x1="735.0" x2="820.0" y1="338.0" y2="338.0" /><line stroke="#444444" stroke-width="0.5" x1="735.0" x2="820.0" y1="340.0" y2="340.0" /><line stroke="#444444" stroke-width="0.5" x1="735.0" x2="820.0" y1="342.0" y2="342.0" /><line stroke="#444444" stroke-width="0.5" x1="735.0" x2="820.0" y1="344.0" y2="344.0" /><line stroke="#444444" stroke-width="0.5" x1="735.0" x2="820.0" y1="346.0" y2="346.0" /><line stroke="#444444" stroke-width="0.5" x1="735.0" x2="820.0" y1="348.0" y2="348.0" /><line stroke="#444444" stroke-width="0.5" x1="735.0" x2="820.0" y1="350.0" y2="350.0" /><line stroke="#444444" stroke-width="0.5" x1="735.0" x2="820.0" y1="352.0" y2="352.0" /><line stroke="#3A3A3A" stroke-width="1" x1="824.0" x2="824.0" y1="336.0" y2="354.0" /></g><g id="charm_baseplate"><rect fill="#2A2A2A" height="18" width="100" x="725.0" y="354.0" /><rect fill="#4488CC" height="18" width="5" x="725.0" y="354.0" /><line stroke="#444444" stroke-width="0.5" x1="735.0" x2="820.0" y1="356.0" y2="356.0" /><line stroke="#444444" stroke-width="0.5" x1="735.0" x2="820.0" y1="358.0" y2="358.0" /><line stroke="#444444" stroke-width="0.5" x1="735.0" x2="820.0" y1="360.0" y2="360.0" /><line stroke="#444444" stroke-width="0.5" x1="735.0" x2="820.0" y1="362.0" y2="362.0" /><line stroke="#444444" stroke-width="0.5" x1="735.0" x2="820.0" y1="364.0" y2="364.0" /><line stroke="#444444" stroke-width="0.5" x1="735.0" x2="820.0" y1="366.0" y2="366.0" /><line stroke="#444444" stroke-width="0.5" x1="735.0" x2="820.0" y1="368.0" y2="368.0" /><line stroke="#444444" stroke-width="0.5" x1="735.0" x2="820.0" y1="370.0" y2="370.0" /><line stroke="#3A3A3A" stroke-width="1" x1="824.0" x2="824.0" y1="354.0" y2="372.0" /></g><g id="charm_baseplate"><rect fill="#303030" height="18" width="100" x="725.0" y="372.0" /><rect fill="#4488CC" height="18" width="5" x="725.0" y="372.0" /><line stroke="#444444" stroke-width="0.5" x1="735.0" x2="820.0" y1="374.0" y2="374.0" /><line stroke="#444444" stroke-width="0.5" x1="735.0" x2="820.0" y1="376.0" y2="376.0" /><line stroke="#444444" stroke-width="0.5" x1="735.0" x2="820.0" y1="378.0" y2="378.0" /><line stroke="#444444" stroke-width="0.5" x1="735.0" x2="820.0" y1="380.0" y2="380.0" /><line stroke="#444444" stroke-width="0.5" x1="735.0" x2="820.0" y1="382.0" y2="382.0" /><line stroke="#444444" stroke-width="0.5" x1="735.0" x2="820.0" y1="384.0" y2="384.0" /><line stroke="#444444" stroke-width="0.5" x1="735.0" x2="820.0" y1="386.0" y2="386.0" /><line stroke="#444444" stroke-width="0.5" x1="735.0" x2="820.0" y1="388.0" y2="388.0" /><line stroke="#3A3A3A" stroke-width="1" x1="824.0" x2="824.0" y1="372.0" y2="390.0" /></g><g id="charm_baseplate"><rect fill="#2A2A2A" height="18" width="100" x="725.0" y="390.0" /><rect fill="#4488CC" height="18" width="5" x="725.0" y="390.0" /><line stroke="#444444" stroke-width="0.5" x1="735.0" x2="820.0" y1="392.0" y2="392.0" /><line stroke="#444444" stroke-width="0.5" x1="735.0" x2="820.0" y1="394.0" y2="394.0" /><line stroke="#444444" stroke-width="0.5" x1="735.0" x2="820.0" y1="396.0" y2="396.0" /><line stroke="#444444" stroke-width="0.5" x1="735.0" x2="820.0" y1="398.0" y2="398.0" /><line stroke="#444444" stroke-width="0.5" x1="735.0" x2="820.0" y1="400.0" y2="400.0" /><line stroke="#444444" stroke-width="0.5" x1="735.0" x2="820.0" y1="402.0" y2="402.0" /><line stroke="#444444" stroke-width="0.5" x1="735.0" x2="820.0" y1="404.0" y2="404.0" /><line stroke="#444444" stroke-width="0.5" x1="735.0" x2="820.0" y1="406.0" y2="406.0" /><line stroke="#3A3A3A" stroke-width="1" x1="824.0" x2="824.0" y1="390.0" y2="408.0" /></g><g id="charm_baseplate"><rect fill="#303030" height="18" width="100" x="725.0" y="408.0" /><rect fill="#4488CC" height="18" width="5" x="725.0" y="408.0" /><line stroke="#444444" stroke-width="0.5" x1="735.0" x2="820.0" y1="410.0" y2="410.0" /><line stroke="#444444" stroke-width="0.5" x1="735.0" x2="820.0" y1="412.0" y2="412.0" /><line stroke="#444444" stroke-width="0.5" x1="735.0" x2="820.0" y1="414.0" y2="414.0" /><line stroke="#444444" stroke-width="0.5" x1="735.0" x2="820.0" y1="416.0" y2="416.0" /><line stroke="#444444" stroke-width="0.5" x1="735.0" x2="820.0" y1="418.0" y2="418.0" /><line stroke="#444444" stroke-width="0.5" x1="735.0" x2="820.0" y1="420.0" y2="420.0" /><line stroke="#444444" stroke-width="0.5" x1="735.0" x2="820.0" y1="422.0" y2="422.0" /><line stroke="#444444" stroke-width="0.5" x1="735.0" x2="820.0" y1="424.0" y2="424.0" /><line stroke="#3A3A3A" stroke-width="1" x1="824.0" x2="824.0" y1="408.0" y2="426.0" /></g><g id="charm_baseplate"><rect fill="#2A2A2A" height="18" width="100" x="725.0" y="426.0" /><rect fill="#4488CC" height="18" width="5" x="725.0" y="426.0" /><line stroke="#444444" stroke-width="0.5" x1="735.0" x2="820.0" y1="428.0" y2="428.0" /><line stroke="#444444" stroke-width="0.5" x1="735.0" x2="820.0" y1="430.0" y2="430.0" /><line stroke="#444444" stroke-width="0.5" x1="735.0" x2="820.0" y1="432.0" y2="432.0" /><line stroke="#444444" stroke-width="0.5" x1="735.0" x2="820.0" y1="434.0" y2="434.0" /><line stroke="#444444" stroke-width="0.5" x1="735.0" x2="820.0" y1="436.0" y2="436.0" /><line stroke="#444444" stroke-width="0.5" x1="735.0" x2="820.0" y1="438.0" y2="438.0" /><line stroke="#444444" stroke-width="0.5" x1="735.0" x2="820.0" y1="440.0" y2="440.0" /><line stroke="#444444" stroke-width="0.5" x1="735.0" x2="820.0" y1="442.0" y2="442.0" /><line stroke="#3A3A3A" stroke-width="1" x1="824.0" x2="824.0" y1="426.0" y2="444.0" /></g><text fill="#DDDDDD" font-family="sans-serif" font-size="10" text-anchor="middle" x="880" y="470">Tower B</text><g id="empty_tower_slot"><rect fill="#1A1A1A" height="430" stroke="#555555" stroke-dasharray="4,3" stroke-width="1" width="100" x="830.0" y="260.0" /><line stroke="#2A2A2A" stroke-width="1" x1="830.0" x2="930.0" y1="260.0" y2="690.0" /><line stroke="#2A2A2A" stroke-width="1" x1="930.0" x2="830.0" y1="260.0" y2="690.0" /></g><text fill="#DDDDDD" font-family="sans-serif" font-size="8" text-anchor="middle" x="880" y="475">SPARE</text><text fill="#DDDDDD" font-family="sans-serif" font-size="10" text-anchor="middle" x="985" y="470">Tower C</text><g id="empty_tower_slot"><rect fill="#1A1A1A" height="430" stroke="#555555" stroke-dasharray="4,3" stroke-width="1" width="100" x="935.0" y="260.0" /><line stroke="#2A2A2A" stroke-width="1" x1="935.0" x2="1035.0" y1="260.0" y2="690.0" /><line stroke="#2A2A2A" stroke-width="1" x1="1035.0" x2="935.0" y1="260.0" y2="690.0" /></g><text fill="#DDDDDD" font-family="sans-serif" font-size="8" text-anchor="middle" x="985" y="475">SPARE</text><g id="console_furniture"><rect fill="#909090" height="12" width="350" x="1820.0" y="700.0" /><rect fill="#A0A0A0" height="88" width="18" x="1820.0" y="712.0" /><rect fill="#A0A0A0" height="88" width="18" x="2152.0" y="712.0" /><text fill="#000000" font-family="sans-serif" font-size="9" text-anchor="middle" x="1995" y="814.0">OWS Console</text></g><g id="monitor"><rect fill="#1A1A1A" height="42" rx="3" ry="3" width="70" x="1960.0" y="645.5" /><rect fill="#4488BB" height="34" rx="1" ry="1" width="62" x="1964.0" y="649.5" /><polygon fill="#1A1A1A" points="1991,687.5 1999,687.5 2003,697.5 1987,697.5" /><rect fill="#1A1A1A" height="4" width="40" x="1975" y="696.5" /><text fill="#000000" font-family="sans-serif" font-size="8" text-anchor="middle" x="1995" y="714.5">Monitor</text></g><g id="tower_workstation"><rect fill="#3A3A3A" height="140" rx="3" ry="3" stroke="#222222" stroke-width="1" width="55" x="1847.5" y="710.0" /><rect fill="#222222" height="10" width="42" x="1854.0" y="718.0" /><rect fill="#222222" height="10" width="42" x="1854.0" y="731.0" /><rect fill="#222222" height="10" width="42" x="1854.0" y="744.0" /><circle cx="1875" cy="765.0" fill="#222222" r="7" stroke="#666666" stroke-width="1" /><circle cx="1887" cy="765.0" fill="#00CC44" r="2.5" /><line stroke="#444444" stroke-width="1" x1="1856" x2="1894" y1="785.0" y2="785.0" /><line stroke="#444444" stroke-width="1" x1="1856" x2="1894" y1="791.0" y2="791.0" /><line stroke="#444444" stroke-width="1" x1="1856" x2="1894" y1="797.0" y2="797.0" /><line stroke="#444444" stroke-width="1" x1="1856" x2="1894" y1="803.0" y2="803.0" /><line stroke="#444444" stroke-width="1" x1="1856" x2="1894" y1="809.0" y2="809.0" /><text fill="#000000" font-family="sans-serif" font-size="9" text-anchor="middle" x="1875" y="862.0">OWS</text></g><g id="printer"><rect fill="#B0B0B0" height="65" rx="2" ry="2" stroke="#888888" stroke-width="1" width="70" x="2080.0" y="635.5" /><rect fill="#A0A0A0" height="6" width="54" x="2088" y="637.5" /><rect fill="#888888" height="8" width="54" x="2088" y="690.5" /><circle cx="2142.0" cy="645.5" fill="#00CC44" r="3" /><text fill="#000000" font-family="sans-serif" font-size="9" text-anchor="middle" x="2115" y="712.5">Printer</text></g><g id="firewall"><rect fill="#3A3A3A" height="22" stroke="#222222" stroke-width="1" width="180" x="2125.0" y="739.0" /><rect fill="#CC7700" height="22" width="8" x="2125.0" y="739.0" /><path d="M2155.0,742 L2162.0,742 L2162.0,750 C2162.0,755 2158.0,758 2155.0,758 C2152.0,758 2148.0,755 2148.0,750 L2148.0,742 Z" fill="none" stroke="#FFFFFF" stroke-width="1.5" /><rect fill="#222222" height="6" stroke="#555555" stroke-width="1" width="8" x="2245.0" y="747" /><rect fill="#222222" height="6" stroke="#555555" stroke-width="1" width="8" x="2257.0" y="747" /><rect fill="#222222" height="6" stroke="#555555" stroke-width="1" width="8" x="2269.0" y="747" /><rect fill="#222222" height="6" stroke="#555555" stroke-width="1" width="8" x="2281.0" y="747" /><text fill="#000000" font-family="sans-serif" font-size="8" text-anchor="middle" x="2215" y="771.0">Firewall</text></g><path d="M 177 700 L 177 835 L 529 835 L 529 855" fill="none" stroke="#2244CC" stroke-width="2.5" /><path d="M 183 700 L 183 835 L 535 835 L 535 855" fill="none" stroke="#CC44AA" stroke-width="2.5" /><path d="M 502 700 L 502 835 L 529 835 L 529 855" fill="none" stroke="#2244CC" stroke-width="2.5" /><path d="M 508 700 L 508 835 L 535 835 L 535 855" fill="none" stroke="#CC44AA" stroke-width="2.5" /><path d="M 882 700 L 882 835 L 529 835 L 529 855" fill="none" stroke="#2244CC" stroke-width="2.5" /><path d="M 888 700 L 888 835 L 535 835 L 535 855" fill="none" stroke="#CC44AA" stroke-width="2.5" /><path d="M 1717 873 L 1717 860 L 1872 860 L 1872 850" fill="none" stroke="#2244CC" stroke-width="2.5" /><path d="M 1723 873 L 1723 860 L 1878 860 L 1878 850" fill="none" stroke="#CC44AA" stroke-width="2.5" /><path d="M 532 909 L 532 919 L 1720 919 L 1720 927" fill="none" stroke="#CC2200" stroke-width="3.0" /><text fill="#CC2200" font-family="sans-serif" font-size="9" font-weight="bold" text-anchor="middle" x="1126" y="914">Fibre</text><g id="fopp_mc"><rect fill="none" height="54" stroke="#111111" stroke-width="1.5" width="90" x="487.0" y="855.0" /><polygon fill="#2244CC" points="487.0,855.0 577.0,855.0 487.0,909.0" /><polygon fill="#CC44AA" points="577.0,855.0 577.0,909.0 487.0,909.0" /><line stroke="#111111" stroke-width="1" x1="487.0" x2="577.0" y1="909.0" y2="855.0" /><line stroke="#111111" stroke-width="1.5" x1="481.0" x2="487.0" y1="882" y2="882" /><line stroke="#111111" stroke-width="1.5" x1="577.0" x2="583.0" y1="882" y2="882" /><text fill="#333333" font-family="sans-serif" font-size="9" font-weight="bold" text-anchor="middle" x="532" y="924.0">[PDC]</text></g><g id="fopp_mc"><rect fill="none" height="54" stroke="#111111" stroke-width="1.5" width="90" x="1675.0" y="873.0" /><polygon fill="#2244CC" points="1675.0,873.0 1765.0,873.0 1675.0,927.0" /><polygon fill="#CC44AA" points="1765.0,873.0 1765.0,927.0 1675.0,927.0" /><line stroke="#111111" stroke-width="1" x1="1675.0" x2="1765.0" y1="927.0" y2="873.0" /><line stroke="#111111" stroke-width="1.5" x1="1669.0" x2="1675.0" y1="900" y2="900" /><line stroke="#111111" stroke-width="1.5" x1="1765.0" x2="1771.0" y1="900" y2="900" /><text fill="#333333" font-family="sans-serif" font-size="9" font-weight="bold" text-anchor="middle" x="1720" y="942.0">[OPR]</text></g></svg>